<svg xmlns="http://www.w3.org/2000/svg" x="0px" y="0px"
width="50" height="50"
viewBox="0 0 172 172"
style=" fill:#000000;"><g transform=""><g fill="none" fill-rule="nonzero" stroke="none" stroke-width="1" stroke-linecap="butt" stroke-linejoin="miter" stroke-miterlimit="10" stroke-dasharray="" stroke-dashoffset="0" font-family="none" font-weight="none" font-size="none" text-anchor="none" style="mix-blend-mode: normal"><path d="M0,172v-172h172v172z" fill="none"></path><path d="" fill="none"></path><path d="" fill="none"></path><path d="" fill="none"></path><g fill="#ffffff"><path d="M86,21.5c-26.23278,-0.00199 -49.85354,15.88395 -59.74447,40.18062c-9.89093,24.29667 -4.08142,52.16337 14.6941,70.48381c18.77553,18.32044 46.77636,23.44457 70.82307,12.96057h36.03979c1.08687,-0.00016 2.06664,-0.65495 2.48254,-1.65909c0.4159,-1.00414 0.18605,-2.15994 -0.5824,-2.92855l-13.75769,-13.75769c15.75934,-19.29123 18.99805,-45.93413 8.31947,-68.43916c-10.67858,-22.50503 -33.36442,-36.84679 -58.27443,-36.84051zM88.1626,26.79626c22.85981,0.86116 43.17727,14.81701 52.18465,35.84508c9.00738,21.02806 5.0922,45.36397 -10.05599,62.50587c-0.9409,1.06311 -0.89262,2.67468 0.11023,3.67957l10.92322,10.92322h-30.1189c-0.37814,0.00146 -0.75181,0.08191 -1.09705,0.23621c-22.28527,9.96686 -48.40347,5.23058 -65.77004,-11.92676c-17.36657,-17.15733 -22.41907,-43.21621 -12.72305,-65.62065c9.69601,-22.40444 32.15159,-36.55859 56.54692,-35.64254zM86.5564,40.323c-3.65742,-0.15157 -7.21837,1.19551 -9.85972,3.72986c-2.64135,2.53435 -4.13446,6.03658 -4.13418,9.69714c0.00889,7.41764 6.01986,13.42861 13.4375,13.4375c7.32298,0.01416 13.30897,-5.8378 13.46061,-13.15923c0.15164,-7.32143 -5.58692,-13.41622 -12.90421,-13.70527zM86,45.6875c4.4528,0 8.0625,3.6097 8.0625,8.0625c0,4.4528 -3.6097,8.0625 -8.0625,8.0625c-4.4528,0 -8.0625,-3.6097 -8.0625,-8.0625c0,-4.4528 3.6097,-8.0625 8.0625,-8.0625zM84.36755,72.56775c-1.21339,0.02479 -2.41635,0.23 -3.56934,0.60889l-11.75781,3.82129c-1.1037,0.362 -1.84992,1.3921 -1.84992,2.55365c0,1.16155 0.74623,2.19165 1.84992,2.55365c3.67366,1.15451 6.18253,4.54774 6.2096,8.39844v29.23706c0.00845,4.022 2.05334,7.76603 5.43274,9.9469c3.1122,2.04015 6.98467,2.55029 10.51904,1.38574l11.75781,-3.83179c1.1037,-0.362 1.84993,-1.3921 1.84993,-2.55365c0,-1.16155 -0.74623,-2.19165 -1.84993,-2.55365v0.00525c-3.67182,-1.15391 -6.18026,-4.54443 -6.2096,-8.39319v-29.23706c-0.00845,-4.022 -2.05334,-7.76603 -5.43274,-9.9469c-2.06269,-1.3499 -4.48508,-2.04515 -6.94971,-1.99463zM84.48828,77.93225c1.37989,-0.02464 2.73523,0.36678 3.88953,1.12329c1.85815,1.19306 2.98614,3.24557 2.99719,5.45373v29.23706c0.0022,3.85542 1.58438,7.54147 4.37768,10.19885l-6.21484,2.03137c-1.98844,0.65008 -4.16447,0.36239 -5.91565,-0.78211c-1.85815,-1.19306 -2.98614,-3.24557 -2.99719,-5.45373v-29.23706c-0.0022,-3.85542 -1.58438,-7.54147 -4.37768,-10.19885l6.21484,-2.03137c0.65446,-0.21462 1.33747,-0.32964 2.02612,-0.34119z"></path></g></g></g></svg>